# xmcd
#
# Track frame offsets:
#	182
#	17380
#	28890
#	40425
#	61825
#	89715
#	105760
#	123127
#	132762
#	153625
#	171212
#	186405
#	199672
#	214160
#	233000
#	245260
#	263100
#	277752
#	293335
#	309597
#
# Disc length: 4372
#
# Revision: 2
# Processed by: cddbd v1.5.1PL0 Copyright (c) Steve Scherf et al.
# Submitted via: audiograbber 1.81.02
# Normalized: r1:DSETVAR2
#
DISCID=0c111214
DTITLE=Various Artist - The Love Collection [CD3)
DYEAR=1900
DGENRE=Rock
TTITLE0=Gladys Knight and The Pips - Best Thing That Ever Happened To Me
TTITLE1=Jim Croce - I'll Have To Say I Love In A Song
TTITLE2=The Kinks - Tired Of Waiting For You
TTITLE3=Kelly Marie - Loving Just For Fun
TTITLE4=Coffee - Casanova
TTITLE5=Shalamar - There It Is
TTITLE6=Dollar - Shooting Star
TTITLE7=The Ivy League - Funny How Love Can Be
TTITLE8=Melanie - Ruby Tuesday
TTITLE9=Nazareth - Love Hurts
TTITLE10=Gladys Knight and The Pips - Come Back and Finish What You Started
TTITLE11=Sweet Sensation - Purely By Coincidence
TTITLE12=Moments - Girls
TTITLE13=Bonnie Tyler - More Than A Lover
TTITLE14=Pagliaro - Lovin' You Ain't Easy
TTITLE15=Long Jonh Baldry - It's Too Late Now
TTITLE16=P.P. Arnold - Angel Of The Morning
TTITLE17=Elkie Brooks - Kiss Me For The Last Time
TTITLE18=The Lovin' Spoonful - Darlin' Be Home Soon
TTITLE19=Simon May - The Summer Of My Life
EXTD=
EXTT0=
EXTT1=
EXTT2=
EXTT3=
EXTT4=
EXTT5=
EXTT6=
EXTT7=
EXTT8=
EXTT9=
EXTT10=
EXTT11=
EXTT12=
EXTT13=
EXTT14=
EXTT15=
EXTT16=
EXTT17=
EXTT18=
EXTT19=
PLAYORDER=
